<svg width="50" height="50" viewBox="0 0 50 50" fill="none" xmlns="http://www.w3.org/2000/svg">
<path d="M17.0487 11C17.0487 9.89543 16.1532 9 15.0487 9H10.5311C10.1485 9 9.77402 9.10971 9.45194 9.31612L2.92085 13.5017C2.34705 13.8695 2 14.5041 2 15.1856V18.369C2 19.946 3.73998 20.9027 5.07154 20.0577L8.86696 17.6494V38.5954C8.86696 39.6999 9.76239 40.5954 10.867 40.5954H15.0487C16.1532 40.5954 17.0487 39.6999 17.0487 38.5954V11Z" stroke="#1B1918" stroke-width="2"/>
<path d="M35.8348 18.9855C34.0665 18.9855 32.3989 19.4524 31.0915 20.2434L31.5128 16.1156H42.3871C43.4916 16.1156 44.3871 15.2202 44.3871 14.1156V11C44.3871 9.89543 43.4916 9 42.3871 9H26.4282C25.3921 9 24.5276 9.79122 24.436 10.8232L23.2128 24.6092C23.1214 25.6393 23.8304 26.5692 24.8479 26.7538L28.8304 27.4763C29.6061 27.617 30.2955 27.2785 30.7364 26.8432C31.4866 26.1024 32.7261 25.6104 33.9908 25.6098C35.209 25.6164 36.2078 26.0609 36.9033 26.7818C37.6008 27.5047 38.047 28.5621 38.047 29.8844C38.047 31.1956 37.6094 32.2383 36.9286 32.947C36.25 33.6534 35.2746 34.0867 34.0788 34.0867C32.3178 34.0867 31.0095 33.1407 30.6181 31.8594C30.3779 31.0729 29.6543 30.2283 28.5563 30.2283H24.5226C23.4369 30.2283 22.4188 31.1497 22.5912 32.3857C23.3162 37.584 28.0793 41 34.0788 41C37.5563 41 40.5473 39.8506 42.6746 37.8315C44.8048 35.8097 46.0075 32.9727 46.0003 29.7252C46.0145 23.5586 41.704 18.9855 35.8348 18.9855ZM29.972 22.4238L30.056 22.4846L29.972 22.4238Z" stroke="#1B1918" stroke-width="2"/>
</svg>
