<svg width="35" height="36" viewBox="0 0 35 36" fill="none" xmlns="http://www.w3.org/2000/svg">
<path d="M14.1414 20.8494L17.3054 17.8114C17.6134 17.5127 17.8747 17.2514 18.0894 17.0274C18.304 16.8034 18.472 16.598 18.5934 16.4114C18.724 16.2247 18.8174 16.052 18.8734 15.8934C18.9294 15.7347 18.9574 15.5714 18.9574 15.4034C18.9574 14.9647 18.822 14.6147 18.5514 14.3534C18.2807 14.092 17.9074 13.9614 17.4314 13.9614C16.9554 13.9614 16.582 14.1014 16.3114 14.3814C16.0407 14.652 15.9054 15.0394 15.9054 15.5434H14.1414C14.1414 15.0674 14.216 14.6334 14.3654 14.2414C14.5147 13.8494 14.7294 13.518 15.0094 13.2474C15.2987 12.9767 15.644 12.7667 16.0454 12.6174C16.456 12.468 16.918 12.3934 17.4314 12.3934C17.9447 12.3934 18.402 12.468 18.8034 12.6174C19.214 12.7574 19.5594 12.9627 19.8394 13.2334C20.1287 13.4947 20.348 13.812 20.4974 14.1854C20.6467 14.5494 20.7214 14.9554 20.7214 15.4034C20.7214 15.954 20.544 16.4954 20.1894 17.0274C19.8347 17.5594 19.284 18.166 18.5374 18.8474L16.3394 20.8494H20.7214V22.3334H14.1414V20.8494Z" fill="#42403F"/>
<rect x="1" y="1.33337" width="33" height="33" rx="16.5" stroke="#42403F" stroke-width="2"/>
</svg>
