<svg width="35" height="35" viewBox="0 0 35 35" fill="none" xmlns="http://www.w3.org/2000/svg">
<path d="M17.4295 22.1401C16.3281 22.1401 15.4741 21.8461 14.8675 21.2581C14.2608 20.6607 13.9481 19.8114 13.9295 18.7101H15.6935C15.7121 19.3541 15.8661 19.8254 16.1555 20.1241C16.4448 20.4227 16.8695 20.5721 17.4295 20.5721C18.0081 20.5721 18.4421 20.4414 18.7315 20.1801C19.0208 19.9094 19.1655 19.5454 19.1655 19.0881C19.1655 18.6867 19.0255 18.3554 18.7455 18.0941C18.4748 17.8327 18.0688 17.7021 17.5275 17.7021H16.2395V16.2181H17.5275C17.9755 16.2181 18.3255 16.1014 18.5775 15.8681C18.8295 15.6347 18.9555 15.3314 18.9555 14.9581C18.9555 14.5567 18.8248 14.2347 18.5635 13.9921C18.3115 13.7494 17.9335 13.6281 17.4295 13.6281C16.4961 13.6281 15.9875 14.1554 15.9035 15.2101H14.1395C14.1581 14.2207 14.4521 13.4507 15.0215 12.9001C15.6001 12.3401 16.4028 12.0601 17.4295 12.0601C17.9708 12.0601 18.4468 12.1301 18.8575 12.2701C19.2681 12.4007 19.6088 12.5921 19.8795 12.8441C20.1595 13.0867 20.3695 13.3807 20.5095 13.7261C20.6495 14.0621 20.7195 14.4354 20.7195 14.8461C20.7195 15.2941 20.6215 15.7001 20.4255 16.0641C20.2295 16.4281 19.9261 16.7221 19.5155 16.9461C19.9915 17.1794 20.3461 17.4921 20.5795 17.8841C20.8128 18.2761 20.9295 18.7194 20.9295 19.2141C20.9295 19.6527 20.8548 20.0494 20.7055 20.4041C20.5561 20.7587 20.3321 21.0667 20.0335 21.3281C19.7441 21.5894 19.3801 21.7901 18.9415 21.9301C18.5121 22.0701 18.0081 22.1401 17.4295 22.1401Z" fill="#42403F"/>
<rect x="1" y="1.00006" width="33" height="33" rx="16.5" stroke="#42403F" stroke-width="2"/>
</svg>
