<svg width="50" height="50" viewBox="0 0 50 50" fill="none" xmlns="http://www.w3.org/2000/svg">
<path d="M21.0487 18.7679L14.543 16.4414" stroke="#1B1918" stroke-width="2" stroke-miterlimit="10"/>
<path d="M28.6523 28.1484L34.8099 32.748C35.6943 33.4054 36.9027 33.1923 37.5089 32.2721L37.5089 32.2721C38.1151 31.3519 37.8896 30.073 37.0052 29.4156" stroke="#1B1918" stroke-width="2" stroke-miterlimit="10" stroke-linecap="round" stroke-linejoin="round"/>
<path d="M28.6521 28.1486L33.2083 31.5579C34.0927 32.2153 34.3182 33.4941 33.712 34.4143L33.712 34.4143C33.1058 35.3345 31.8974 35.5476 31.013 34.8902L26.4568 31.481" stroke="#1B1918" stroke-width="2" stroke-miterlimit="10" stroke-linecap="round" stroke-linejoin="round"/>
<path d="M26.4568 31.4806L29.4117 33.6997C30.2961 34.357 30.5216 35.6359 29.9154 36.5561L29.9154 36.5561C29.3091 37.4763 28.1008 37.6894 27.2164 37.032L24.2615 34.813" stroke="#1B1918" stroke-width="2" stroke-miterlimit="10" stroke-linecap="round" stroke-linejoin="round"/>
<path d="M24.2614 34.8132L25.6149 35.842C26.4993 36.4993 26.7248 37.7782 26.1186 38.6984L26.1186 38.6984C25.5124 39.6186 24.304 39.8317 23.4196 39.1743L21.0176 37.3889L14.6123 32.6279L8.50391 25.6055" stroke="#1B1918" stroke-width="2" stroke-miterlimit="10" stroke-linecap="round" stroke-linejoin="round"/>
<path d="M6.05771 27.5096L2.85505 25.1291C2.41285 24.8004 2.3001 24.1609 2.60321 23.7008L10.8357 11.2045C11.1388 10.7444 11.743 10.6379 12.1852 10.9666L15.3879 13.3471C15.8301 13.6758 15.9428 14.3152 15.6397 14.7753L7.40721 27.2716C7.1041 27.7317 6.49991 27.8383 6.05771 27.5096Z" stroke="#1B1918" stroke-width="2" stroke-miterlimit="10"/>
<path d="M35.2409 12.3318L38.6704 10.3858C39.1439 10.1171 39.7545 10.2891 40.0342 10.7699L47.0529 23.0711C47.3327 23.5519 47.1756 24.1595 46.7021 24.4282L43.2726 26.3742C42.7991 26.6429 42.1885 26.4709 41.9088 25.9901L34.8901 13.6889C34.6103 13.2081 34.7674 12.6005 35.2409 12.3318Z" stroke="#1B1918" stroke-width="2" stroke-miterlimit="10"/>
<path d="M25.9431 21.1927L36.6991 29.1875L41.5229 25.3018L36.0038 15.9071L25.7739 16.5164C25.3438 16.542 24.9312 16.6759 24.5675 16.91C23.1844 17.7999 19.6252 20.0864 18.9278 20.4981C18.9278 20.4981 15.8282 23.8613 19.989 24.1399C20.553 24.1777 21.1146 24.0014 21.5766 23.6722C22.6203 22.9285 25.0738 21.346 25.9431 21.1927Z" stroke="#1B1918" stroke-width="2" stroke-miterlimit="10"/>
<path d="M14.0848 31.8113L11.9494 34.185C11.2058 35.0046 9.94909 35.044 9.14247 34.2731L9.14247 34.2731C8.33585 33.5022 8.28477 32.2128 9.02838 31.3932L11.1638 29.0196" stroke="#1B1918" stroke-width="2" stroke-miterlimit="10"/>
<path d="M16.4542 35.3234L13.5222 38.4608C12.7786 39.2804 11.5219 39.3198 10.7153 38.5489L10.7153 38.5489C9.90864 37.778 9.30011 37.0829 10.6012 35.669L13.294 32.7011" stroke="#1B1918" stroke-width="2" stroke-miterlimit="10"/>
<path d="M19.2539 38.137L17.1185 40.5107C16.3749 41.3303 15.1182 41.3697 14.3116 40.5988L14.3116 40.5988C13.5049 39.8278 13.4539 38.5385 14.1975 37.7189L17.1294 34.5815" stroke="#1B1918" stroke-width="2" stroke-miterlimit="10"/>
<path d="M23.5223 39.4447L21.3869 41.8183C20.6433 42.6379 19.3866 42.6773 18.58 41.9064L18.58 41.9064C17.7734 41.1355 17.7223 39.8461 18.4659 39.0265L20.6013 36.6529" stroke="#1B1918" stroke-width="2" stroke-miterlimit="10"/>
</svg>
