<svg width="50" height="50" viewBox="0 0 50 50" fill="none" xmlns="http://www.w3.org/2000/svg">
<path d="M40.5296 9.90733C36.1705 6.71895 30.8 4.83496 24.9977 4.83496C19.196 4.83496 13.8259 6.71866 9.46704 9.90657C8.99666 10.2506 8.95845 10.9422 9.37055 11.3543L14.0528 16.0363C14.3773 16.3607 14.8786 16.4002 15.2636 16.1504C18.0685 14.3299 21.4119 13.2717 24.9977 13.2717C28.5842 13.2717 31.928 14.3303 34.7332 16.1513C35.1182 16.4011 35.6196 16.3617 35.9441 16.0371L40.6261 11.355C41.0381 10.943 40.9999 10.2514 40.5296 9.90733Z" stroke="#1B1918" stroke-width="2" stroke-miterlimit="10"/>
<path d="M11.5939 13.5688C6.28095 17.6143 2.85156 24.0066 2.85156 31.1998C2.85156 33.3649 3.17642 35.5496 3.75567 37.5274" stroke="#1B1918" stroke-width="2" stroke-miterlimit="10"/>
<path d="M46.2414 37.5275C46.8207 35.5497 47.1455 33.365 47.1455 31.1999C47.1455 24.0063 43.7158 17.6138 38.4023 13.5684" stroke="#1B1918" stroke-width="2" stroke-miterlimit="10"/>
<path d="M7.6899 41.3735C5.56573 41.3735 3.84375 39.6515 3.84375 37.5273C3.84375 35.4031 5.56573 33.6812 7.6899 33.6812V41.3735Z" stroke="#1B1918" stroke-width="2" stroke-miterlimit="10"/>
<path d="M10.576 29.8901C8.98289 29.8901 7.69141 31.1816 7.69141 32.7748V42.2802C7.69141 43.8733 8.98289 45.1648 10.576 45.1648C12.1692 45.1648 13.4606 43.8733 13.4606 42.2802V32.7748C13.4606 31.1816 12.1692 29.8901 10.576 29.8901Z" stroke="#1B1918" stroke-width="2" stroke-miterlimit="10"/>
<path d="M39.4198 29.8901C37.8266 29.8901 36.5352 31.1816 36.5352 32.7748V42.2802C36.5352 43.8733 37.8266 45.1648 39.4198 45.1648C41.0129 45.1648 42.3044 43.8733 42.3044 42.2802V32.7748C42.3044 31.1816 41.0129 29.8901 39.4198 29.8901Z" stroke="#1B1918" stroke-width="2" stroke-miterlimit="10"/>
<path d="M42.3047 41.3735C44.4289 41.3735 46.1508 39.6515 46.1508 37.5273C46.1508 35.4031 44.4289 33.6812 42.3047 33.6812V41.3735Z" stroke="#1B1918" stroke-width="2" stroke-miterlimit="10"/>
</svg>
