<svg width="50" height="50" viewBox="0 0 50 50" fill="none" xmlns="http://www.w3.org/2000/svg">
<path d="M39.4249 3.84593H10.5787C10.0473 3.84593 9.61719 3.4154 9.61719 2.88439C9.61719 2.35338 10.0473 1.92285 10.5787 1.92285H39.4249C39.9564 1.92285 40.3864 2.35338 40.3864 2.88439C40.3864 3.4154 39.9564 3.84593 39.4249 3.84593Z" fill="#1B1918"/>
<path d="M39.4249 48.0769H10.5787C10.0473 48.0769 9.61719 47.6464 9.61719 47.1153C9.61719 46.5843 10.0473 46.1538 10.5787 46.1538H39.4249C39.9564 46.1538 40.3864 46.5843 40.3864 47.1153C40.3864 47.6464 39.9564 48.0769 39.4249 48.0769Z" fill="#1B1918"/>
<path d="M36.5048 48.0765H13.4965C13.1181 48.0765 12.7744 47.8544 12.6194 47.5089C12.4645 47.1633 12.5265 46.7591 12.7781 46.476L24.2819 33.5337C24.6452 33.1238 25.3523 33.1219 25.7185 33.5337L37.2232 46.476C37.4748 46.7591 37.5368 47.1633 37.3819 47.5089C37.2269 47.8544 36.8833 48.0765 36.5048 48.0765ZM15.6374 46.1534H34.3639L25.0002 35.6202L15.6374 46.1534Z" fill="#1B1918"/>
<path d="M25.0011 22.1151C24.6874 22.1151 24.3935 21.9621 24.2132 21.7048L17.4825 12.0894C17.2768 11.796 17.2515 11.4124 17.4177 11.0941C17.583 10.7762 17.9116 10.5767 18.2703 10.5767H31.7318C32.0905 10.5767 32.4192 10.7762 32.5845 11.0941C32.7507 11.4124 32.7253 11.796 32.5197 12.0894L25.7889 21.7048C25.6086 21.9621 25.3147 22.1151 25.0011 22.1151ZM20.1173 12.4997L25.0011 19.477L29.8848 12.4997H20.1173Z" fill="#1B1918"/>
<path d="M36.5246 48.0767H13.4768C12.9453 48.0767 12.5153 47.6462 12.5153 47.1152V44.4442C12.4852 44.0329 11.8354 32.7541 21.4903 24.9998C11.8354 17.2455 12.4852 5.96667 12.5172 5.49012L12.5153 2.88439C12.5153 2.35338 12.9453 1.92285 13.4768 1.92285H36.5246C37.0561 1.92285 37.4862 2.35338 37.4862 2.88439V5.55538C37.5162 5.96713 38.1651 17.2596 28.4915 25.0143C38.1651 32.74 37.5162 44.0324 37.4843 44.5094L37.4862 47.1152C37.4862 47.6462 37.0561 48.0767 36.5246 48.0767ZM14.4374 46.1536H35.5631V44.4442C35.5725 44.2733 36.1584 33.5959 27.2895 26.4857C26.8379 26.1238 26.5797 25.582 26.5797 24.9988C26.5797 24.4162 26.8388 23.8749 27.2895 23.5138C36.1875 16.3807 35.5725 5.72722 35.565 5.62064L35.564 3.84593H14.4383V5.55538C14.429 5.72628 13.8421 16.4037 22.711 23.5138C23.1617 23.8749 23.4208 24.4162 23.4208 24.9988C23.4208 25.582 23.1626 26.1238 22.7119 26.4853C13.8139 33.6189 14.429 44.2723 14.4365 44.3789L14.4374 46.1536Z" fill="#1B1918"/>
</svg>
